Coordinates
version=1
nRows=13
nColumns=36
inDegrees=yes

Units are S.I. units (second, meters, Newtons, ...)
If the header above contains a line with 'inDegrees', this indicates whether rotational values are in degrees (yes) or radians (no).

endheader
time	pelvis_tilt	pelvis_list	pelvis_rotation	pelvis_tx	pelvis_ty	pelvis_tz	hip_flexion_r	hip_adduction_r	hip_rotation_r	knee_angle_r	knee_angle_r_beta	ankle_angle_r	subtalar_angle_r	mtp_angle_r	hip_flexion_l	hip_adduction_l	hip_rotation_l	knee_angle_l	knee_angle_l_beta	ankle_angle_l	subtalar_angle_l	mtp_angle_l	lumbar_extension	lumbar_bending	lumbar_rotation	arm_flex_r	arm_add_r	arm_rot_r	elbow_flex_r	pro_sup_r	arm_flex_l	arm_add_l	arm_rot_l	elbow_flex_l	pro_sup_l
      1.24583330	    -16.48452431	      0.49892323	     -2.06861503	     -0.91721297	      1.22760758	     -0.12284926	     24.27023554	     -3.05465252	      3.06490970	     15.37332198	      0.26831509	     -2.28713852	    -31.57578070	     -7.49999987	     19.37983865	      1.36293432	     10.55667929	      8.60424255	      0.15017236	      2.82444638	    -22.89516329	     -7.49999987	     -3.67607064	     -0.21342527	      0.82958066	    -12.27771719	    -23.90440817	     39.43960902	     20.64921456	     47.55511433	    -13.90609843	    -13.87836875	     40.30848491	      9.53352650	     45.49444290
      1.25000000	    -16.54068015	      0.60609026	     -2.12547190	     -0.91706096	      1.23209569	     -0.12300997	     24.52718811	     -3.19029113	      2.81068117	     15.75216390	      0.27492712	     -2.20343323	    -31.65344281	     -7.49999987	     19.63145238	      1.52730243	     10.68463668	      9.10357853	      0.15888742	      2.77898283	    -23.19629914	     -7.49999987	     -3.62980010	     -0.29390554	      0.64004867	    -12.49510570	    -24.23066073	     39.33049097	     20.89831001	     47.64047191	    -14.29565535	    -13.82372633	     40.37853413	      9.59365394	     45.51235215
      1.25416670	    -16.79590225	      0.65808248	     -2.15915130	     -0.91703202	      1.22755134	     -0.12298258	     24.87914555	     -3.29072732	      2.46688045	     15.94453840	      0.27828469	     -2.25616477	    -31.85773252	     -7.49999987	     20.13702931	      1.62850328	     10.84372178	      9.57461666	      0.16710859	      2.76813630	    -23.42647181	     -7.49999987	     -3.37881702	     -0.33110639	      0.54703163	    -13.04689897	    -24.54788482	     37.79146611	     21.68677963	     47.78291802	    -14.90480207	    -13.91348413	     39.04127410	     10.39921810	     45.40467764
      1.25833330	    -16.97166323	      0.66957612	     -2.12679584	     -0.91686908	      1.23177722	     -0.12305228	     25.08262857	     -3.37612660	      2.23965660	     16.07486833	      0.28055938	     -2.23342120	    -31.74123245	     -7.49999987	     20.49655480	      1.69085701	     11.08519115	      9.91708519	      0.17308579	      2.76880974	    -23.44716621	     -7.49999987	     -3.14204524	     -0.26737924	      0.34043043	    -13.29438084	    -25.02875394	     38.11729442	     22.74095343	     48.50330519	    -15.14511723	    -13.79549833	     39.96127772	     10.23034528	     45.74539659
      1.26250000	    -17.01436685	      0.66887568	     -2.21789241	     -0.92317462	      1.23172677	     -0.11817424	     25.19990704	     -3.25458327	      2.27185675	     15.99177861	      0.27910919	     -2.17795027	    -31.74297785	     -7.49999987	     20.70929428	      1.62133358	     11.17130622	     10.03418706	      0.17512960	      2.78185301	    -23.44236718	     -7.49999987	     -3.31752492	     -0.33646510	      0.38568980	    -13.27878954	    -25.08116607	     38.12559570	     22.77048968	     48.53105036	    -15.21742523	    -14.03317620	     39.98581738	     10.21163232	     45.75494370
      1.26666670	    -17.55844312	      0.64884273	     -2.16001671	     -0.92296435	      1.22730048	     -0.11791878	     26.09337066	     -3.10371975	      2.45041783	     16.38858931	      0.28603484	     -1.94350186	    -31.76230341	     -7.49999987	     21.86073896	      1.55640664	     11.14632802	     10.88305185	      0.18994509	      3.07480934	    -23.29989091	     -7.49999987	     -2.87315584	     -0.41365977	      0.42547742	    -13.93485982	    -25.45444215	     37.24309216	     24.09670470	     49.94654859	    -15.65507372	    -14.57718946	     39.98343332	     11.31362945	     46.84931200
      1.27083330	    -17.88850990	      0.58586028	     -2.17778868	     -0.92282020	      1.22683179	     -0.11822733	     26.59345050	     -2.91473293	      2.50552686	     16.49603448	      0.28791012	     -2.08720451	    -32.05786517	     -7.49999987	     22.72968006	      1.42599835	     11.03088921	     11.66933592	      0.20366833	      3.77493733	    -22.36845952	     -7.49999987	     -2.88991299	     -0.42411892	      0.32056599	    -14.25604286	    -25.86198970	     36.85267170	     25.23754884	     50.95063289	    -16.15286341	    -15.03185505	     40.06715856	     12.43306467	     47.80933626
      1.27500000	    -18.23834036	      0.53051886	     -2.09676228	     -0.92228394	      1.22683925	     -0.11823363	     27.21660790	     -2.76521465	      2.81969245	     16.94505886	      0.29574707	     -1.55923876	    -31.72816864	     -7.49999987	     23.51532955	      1.38248705	     11.23283086	     12.25938370	      0.21396661	      3.99302844	    -22.24448975	     -7.49999987	     -2.76335125	     -0.40813934	      0.31328510	    -14.67074624	    -26.09609508	     36.53988036	     25.84314438	     51.91087757	    -16.34033857	    -15.18554909	     40.46637904	     12.47767488	     48.41985783
      1.27916670	    -18.53865923	      0.54865701	     -2.11395771	     -0.92199071	      1.22962826	     -0.11855561	     27.77520607	     -2.71565905	      3.15855684	     17.41339389	      0.30392106	     -1.20381814	    -31.61029827	     -7.49999987	     24.20076583	      1.39266598	     11.30316115	     12.84368384	      0.22416457	      4.18824846	    -21.91943816	     -7.49999987	     -2.78370116	     -0.40109886	      0.23838003	    -15.00384352	    -26.39474813	     35.83946631	     26.79966057	     53.74237681	    -16.65172619	    -15.35185101	     41.17274609	     12.88659677	     49.42432883
      1.28333330	    -18.65414580	      0.52371270	     -2.07871437	     -0.92178216	      1.22595903	     -0.11835038	     28.12573678	     -2.57496848	      3.71476593	     17.84966910	      0.31153550	     -0.95769385	    -31.71652705	     -7.49999987	     24.68575703	      1.38274471	     11.34147954	     13.54926978	      0.23647937	      4.64722540	    -21.50078012	     -7.49999987	     -3.07800139	     -0.37644586	      0.06067266	    -15.35530507	    -26.58544295	     34.66048338	     27.84380213	     54.19716495	    -17.17322014	    -15.52317751	     40.32909575	     13.82725083	     49.70314051
      1.28750000	    -18.82493709	      0.53393208	     -2.17192949	     -0.92172277	      1.22534771	     -0.11846428	     28.56152944	     -2.45190556	      4.42148127	     18.41085532	      0.32133004	     -0.70586345	    -31.64759082	     -7.49999987	     25.15966298	      1.33274892	     11.17730562	     14.17228391	      0.24735302	      5.08360105	    -20.97315352	     -7.49999987	     -3.17599561	     -0.40635930	     -0.10268839	    -15.27530101	    -26.83644550	     34.65326456	     28.73473813	     54.89978904	    -17.57825694	    -15.65546755	     40.83841307	     14.42671239	     50.03966813
      1.29166670	    -19.02454237	      0.54818725	     -2.10644880	     -0.92124614	      1.22509599	     -0.11836197	     28.93218329	     -2.44221692	      4.94624794	     18.88300965	      0.32957069	     -0.17399805	    -31.30080543	     -7.49999987	     25.64028037	      1.39496567	     11.33340435	     14.77763895	      0.25791846	      5.31104177	    -21.03592829	     -7.49999987	     -3.19591043	     -0.48305578	     -0.44572516	    -15.45631827	    -27.14039481	     34.73717667	     30.03676058	     55.54440768	    -18.01467306	    -15.70147454	     41.37012407	     14.76226554	     50.39141623
      1.29583330	    -19.10303256	      0.47480938	     -2.06067953	     -0.92758416	      1.22490405	     -0.11350940	     29.12156237	     -2.16508419	      5.79204110	     19.01328488	      0.33184442	      0.10919451	    -31.19051391	     -7.49999987	     25.99888757	      1.27429952	     11.53013860	     15.22017299	      0.26564213	      5.34842368	    -21.04743664	     -7.49999987	     -3.43675506	     -0.60345478	     -0.53459003	    -15.25783803	    -26.99059803	     34.77017140	     30.40477037	     55.60694114	    -18.04901810	    -16.00167216	     41.44838829	     14.85322851	     50.37108753
